# xmcd
#
# Track frame offsets:
#	150
#	28803
#	54929
#	76112
#	100281
#	121633
#	144052
#
# Disc length: 2226 seconds
#
# Revision: 1
# Processed by: cddbd v1.4PL0 Copyright (c) Steve Scherf et al.
# Submitted via: CDmax 1.8
#
DISCID=4708b007
DTITLE=Peobo Bryson - Crosswinds
DYEAR=1978
DGENRE=R and B Soul
TTITLE0=Crosswinds
TTITLE1=I'm so in to you
TTITLE2=Smile
TTITLE3=She's a woman
TTITLE4=Point of view
TTITLE5=Spread your wings
TTITLE6=Love is watching you
EXTD=
EXTT0=
EXTT1=
EXTT2=
EXTT3=
EXTT4=
EXTT5=
EXTT6=
PLAYORDER=
